<?xml version="1.0" standalone="no"?>
<!DOCTYPE svg PUBLIC "-//W3C//DTD SVG 20010904//EN"
 "http://www.w3.org/TR/2001/REC-SVG-20010904/DTD/svg10.dtd">
<svg version="1.0" xmlns="http://www.w3.org/2000/svg"
 width="128.000000pt" height="128.000000pt" viewBox="0 0 128.000000 128.000000"
 preserveAspectRatio="xMidYMid meet">

<g transform="translate(0.000000,128.000000) scale(0.100000,-0.100000)"
fill="#000000" stroke="none">
<path d="M166 845 c-39 -60 -56 -207 -35 -307 11 -53 47 -134 55 -126 2 3 -6
47 -17 99 -17 75 -19 111 -14 179 3 46 9 89 13 95 3 5 7 15 8 20 1 6 5 22 9
38 9 34 2 35 -19 2z"/>
<path d="M1122 633 c-1 -178 8 -196 30 -60 8 56 8 92 0 143 -19 117 -29 92
-30 -83z"/>
</g>
</svg>
